  0
SECTION
  2
HEADER
  9
$ACADVER
  1
AC1014
  9
$HANDSEED
  5
FFFF
  9
$MEASUREMENT
 70
     1
  0
ENDSEC
  0
SECTION
  2
TABLES
  0
TABLE
  2
VPORT
  5
8
330
0
100
AcDbSymbolTable
 70
     4
  0
VPORT
  5
2E
330
8
100
AcDbSymbolTableRecord
100
AcDbViewportTableRecord
  2
*ACTIVE
 70
     0
 10
0.0
 20
0.0
 11
1.0
 21
1.0
 12
210.0
 22
148.5
 13
0.0
 23
0.0
 14
10.0
 24
10.0
 15
10.0
 25
10.0
 16
0.0
 26
0.0
 36
1.0
 17
0.0
 27
0.0
 37
0.0
 40
341.0
 41
1.24
 42
50.0
 43
0.0
 44
0.0
 50
0.0
 51
0.0
 71
     0
 72
   100
 73
     1
 74
     3
 75
     0
 76
     0
 77
     0
 78
     0
  0
ENDTAB
  0
TABLE
  2
LTYPE
  5
5
330
0
100
AcDbSymbolTable
 70
     1
  0
LTYPE
  5
14
330
5
100
AcDbSymbolTableRecord
100
AcDbLinetypeTableRecord
  2
BYBLOCK
 70
     0
  3

 72
    65
 73
     0
 40
0.0
  0
LTYPE
  5
15
330
5
100
AcDbSymbolTableRecord
100
AcDbLinetypeTableRecord
  2
BYLAYER
 70
     0
  3

 72
    65
 73
     0
 40
0.0
  0
LTYPE
  5
16
330
5
100
AcDbSymbolTableRecord
100
AcDbLinetypeTableRecord
  2
CONTINUOUS
 70
     0
  3
Solid line
 72
    65
 73
     0
 40
0.0
  0
ENDTAB
  0
TABLE
  2
LAYER
  5
2
100
AcDbSymbolTable
 70
3
  0
LAYER
  5
50
100
AcDbSymbolTableRecord
100
AcDbLayerTableRecord
  2
0
 70
0
  6
CONTINUOUS
  0
LAYER
  5
51
100
AcDbSymbolTableRecord
100
AcDbLayerTableRecord
  2
Kontur
 70
0
  6
CONTINUOUS
  0
LAYER
  5
52
100
AcDbSymbolTableRecord
100
AcDbLayerTableRecord
  2
Kalibrierhilfe
 70
0
  6
CONTINUOUS
  0
ENDTAB
  0
TABLE
  2
STYLE
  5
3
330
0
100
AcDbSymbolTable
 70
     1
  0
STYLE
  5
11
330
3
100
AcDbSymbolTableRecord
100
AcDbTextStyleTableRecord
  2
STANDARD
 70
     0
 40
0.0
 41
1.0
 50
0.0
 71
     0
 42
2.5
  3
txt
  4

  0
ENDTAB
  0
TABLE
  2
VIEW
  5
6
330
0
100
AcDbSymbolTable
 70
     0
  0
ENDTAB
  0
TABLE
  2
UCS
  5
7
330
0
100
AcDbSymbolTable
 70
     0
  0
ENDTAB
  0
TABLE
  2
APPID
  5
9
330
0
100
AcDbSymbolTable
 70
     2
  0
APPID
  5
12
330
9
100
AcDbSymbolTableRecord
100
AcDbRegAppTableRecord
  2
ACAD
 70
     0
  0
ENDTAB
  0
TABLE
  2
DIMSTYLE
  5
A
330
0
100
AcDbSymbolTable
 70
     1
  0
DIMSTYLE
105
27
330
A
100
AcDbSymbolTableRecord
100
AcDbDimStyleTableRecord
  2
ISO-25
 70
     0
  3

  4

  5

  6

  7

 40
1.0
 41
2.5
 42
0.625
 43
3.75
 44
1.25
 45
0.0
 46
0.0
 47
0.0
 48
0.0
140
2.5
141
2.5
142
0.0
143
0.03937007874016
144
1.0
145
0.0
146
1.0
147
0.625
 71
     0
 72
     0
 73
     0
 74
     0
 75
     0
 76
     0
 77
     1
 78
     8
170
     0
171
     3
172
     1
173
     0
174
     0
175
     0
176
     0
177
     0
178
     0
270
     2
271
     2
272
     2
273
     2
274
     3
340
11
275
     0
280
     0
281
     0
282
     0
283
     0
284
     8
285
     0
286
     0
287
     3
288
     0
  0
ENDTAB
  0
TABLE
  2
BLOCK_RECORD
  5
1
330
0
100
AcDbSymbolTable
 70
     1
  0
BLOCK_RECORD
  5
1F
330
1
100
AcDbSymbolTableRecord
100
AcDbBlockTableRecord
  2
*MODEL_SPACE
  0
BLOCK_RECORD
  5
1B
330
1
100
AcDbSymbolTableRecord
100
AcDbBlockTableRecord
  2
*PAPER_SPACE
  0
ENDTAB
  0
ENDSEC
  0
SECTION
  2
BLOCKS
  0
BLOCK
  5
20
330
1F
100
AcDbEntity
  8
0
100
AcDbBlockBegin
  2
*MODEL_SPACE
 70
     0
 10
0.0
 20
0.0
 30
0.0
  3
*MODEL_SPACE
  1

  0
ENDBLK
  5
21
330
1F
100
AcDbEntity
  8
0
100
AcDbBlockEnd
  0
BLOCK
  5
1C
330
1B
100
AcDbEntity
 67
     1
  8
0
100
AcDbBlockBegin
  2
*PAPER_SPACE
  1

  0
ENDBLK
  5
1D
330
1B
100
AcDbEntity
 67
     1
  8
0
100
AcDbBlockEnd
  0
ENDSEC
  0
SECTION
  2
ENTITIES
  0
SPLINE
  5
100
100
AcDbEntity
  8
Kontur
 62
7
100
AcDbSpline
 70
8
 71
3
 72
8
 73
4
 74
0
 40
0
 40
0
 40
0
 40
0
 40
1
 40
1
 40
1
 40
1
 10
-0.000001
 20
70.688334
 30
0.0
 10
-0.000001
 20
64.925556
 30
0.0
 10
-0.000000
 20
59.162778
 30
0.0
 10
0.000000
 20
53.400000
 30
0.0
  0
SPLINE
  5
101
100
AcDbEntity
  8
Kontur
 62
7
100
AcDbSpline
 70
8
 71
3
 72
8
 73
4
 74
0
 40
0
 40
0
 40
0
 40
0
 40
1
 40
1
 40
1
 40
1
 10
0.000000
 20
53.400000
 30
0.0
 10
2.100000
 20
51.300000
 30
0.0
 10
4.200000
 20
49.200000
 30
0.0
 10
6.300000
 20
47.100000
 30
0.0
  0
SPLINE
  5
102
100
AcDbEntity
  8
Kontur
 62
7
100
AcDbSpline
 70
8
 71
3
 72
8
 73
4
 74
0
 40
0
 40
0
 40
0
 40
0
 40
1
 40
1
 40
1
 40
1
 10
6.300000
 20
47.100000
 30
0.0
 10
6.300000
 20
47.099998
 30
0.0
 10
6.300000
 20
47.099997
 30
0.0
 10
6.300000
 20
47.099995
 30
0.0
  0
SPLINE
  5
103
100
AcDbEntity
  8
Kontur
 62
7
100
AcDbSpline
 70
8
 71
3
 72
8
 73
4
 74
0
 40
0
 40
0
 40
0
 40
0
 40
1
 40
1
 40
1
 40
1
 10
6.300000
 20
47.099995
 30
0.0
 10
6.300000
 20
44.733329
 30
0.0
 10
6.300000
 20
42.366664
 30
0.0
 10
6.300000
 20
39.999999
 30
0.0
  0
SPLINE
  5
104
100
AcDbEntity
  8
Kontur
 62
7
100
AcDbSpline
 70
8
 71
3
 72
8
 73
4
 74
0
 40
0
 40
0
 40
0
 40
0
 40
1
 40
1
 40
1
 40
1
 10
6.300000
 20
39.999999
 30
0.0
 10
6.300002
 20
39.999999
 30
0.0
 10
6.300003
 20
39.999999
 30
0.0
 10
6.300005
 20
39.999999
 30
0.0
  0
SPLINE
  5
105
100
AcDbEntity
  8
Kontur
 62
7
100
AcDbSpline
 70
8
 71
3
 72
8
 73
4
 74
0
 40
0
 40
0
 40
0
 40
0
 40
1
 40
1
 40
1
 40
1
 10
6.300005
 20
39.999999
 30
0.0
 10
6.866670
 20
39.999999
 30
0.0
 10
7.433335
 20
39.999999
 30
0.0
 10
8.000000
 20
39.999999
 30
0.0
  0
SPLINE
  5
106
100
AcDbEntity
  8
Kontur
 62
7
100
AcDbSpline
 70
8
 71
3
 72
8
 73
4
 74
0
 40
0
 40
0
 40
0
 40
0
 40
1
 40
1
 40
1
 40
1
 10
8.000000
 20
39.999999
 30
0.0
 10
8.000000
 20
26.666667
 30
0.0
 10
8.000000
 20
13.333332
 30
0.0
 10
8.000000
 20
-0.000000
 30
0.0
  0
SPLINE
  5
107
100
AcDbEntity
  8
Kontur
 62
7
100
AcDbSpline
 70
8
 71
3
 72
8
 73
4
 74
0
 40
0
 40
0
 40
0
 40
0
 40
1
 40
1
 40
1
 40
1
 10
8.000000
 20
-0.000000
 30
0.0
 10
8.000001
 20
-0.000000
 30
0.0
 10
8.000003
 20
-0.000000
 30
0.0
 10
8.000005
 20
-0.000000
 30
0.0
  0
SPLINE
  5
108
100
AcDbEntity
  8
Kontur
 62
7
100
AcDbSpline
 70
8
 71
3
 72
8
 73
4
 74
0
 40
0
 40
0
 40
0
 40
0
 40
1
 40
1
 40
1
 40
1
 10
8.000005
 20
-0.000000
 30
0.0
 10
11.166670
 20
-0.000000
 30
0.0
 10
14.333335
 20
-0.000000
 30
0.0
 10
17.500000
 20
-0.000000
 30
0.0
  0
SPLINE
  5
109
100
AcDbEntity
  8
Kontur
 62
7
100
AcDbSpline
 70
8
 71
3
 72
8
 73
4
 74
0
 40
0
 40
0
 40
0
 40
0
 40
1
 40
1
 40
1
 40
1
 10
17.500000
 20
-0.000000
 30
0.0
 10
17.500000
 20
13.333332
 30
0.0
 10
17.500000
 20
26.666667
 30
0.0
 10
17.500000
 20
39.999999
 30
0.0
  0
SPLINE
  5
10a
100
AcDbEntity
  8
Kontur
 62
7
100
AcDbSpline
 70
8
 71
3
 72
8
 73
4
 74
0
 40
0
 40
0
 40
0
 40
0
 40
1
 40
1
 40
1
 40
1
 10
17.500000
 20
39.999999
 30
0.0
 10
18.066666
 20
39.999999
 30
0.0
 10
18.633333
 20
39.999999
 30
0.0
 10
19.200000
 20
39.999999
 30
0.0
  0
SPLINE
  5
10b
100
AcDbEntity
  8
Kontur
 62
7
100
AcDbSpline
 70
8
 71
3
 72
8
 73
4
 74
0
 40
0
 40
0
 40
0
 40
0
 40
1
 40
1
 40
1
 40
1
 10
19.200000
 20
39.999999
 30
0.0
 10
19.200000
 20
40.000002
 30
0.0
 10
19.200000
 20
40.000005
 30
0.0
 10
19.200000
 20
40.000007
 30
0.0
  0
SPLINE
  5
10c
100
AcDbEntity
  8
Kontur
 62
7
100
AcDbSpline
 70
8
 71
3
 72
8
 73
4
 74
0
 40
0
 40
0
 40
0
 40
0
 40
1
 40
1
 40
1
 40
1
 10
19.200000
 20
40.000007
 30
0.0
 10
19.200000
 20
42.366669
 30
0.0
 10
19.200000
 20
44.733329
 30
0.0
 10
19.200000
 20
47.099990
 30
0.0
  0
SPLINE
  5
10d
100
AcDbEntity
  8
Kontur
 62
7
100
AcDbSpline
 70
8
 71
3
 72
8
 73
4
 74
0
 40
0
 40
0
 40
0
 40
0
 40
1
 40
1
 40
1
 40
1
 10
19.200000
 20
47.099990
 30
0.0
 10
19.200000
 20
47.099994
 30
0.0
 10
19.200000
 20
47.099997
 30
0.0
 10
19.200000
 20
47.100000
 30
0.0
  0
SPLINE
  5
10e
100
AcDbEntity
  8
Kontur
 62
7
100
AcDbSpline
 70
8
 71
3
 72
8
 73
4
 74
0
 40
0
 40
0
 40
0
 40
0
 40
1
 40
1
 40
1
 40
1
 10
19.200000
 20
47.100000
 30
0.0
 10
21.299997
 20
49.199997
 30
0.0
 10
23.399994
 20
51.299994
 30
0.0
 10
25.499992
 20
53.399992
 30
0.0
  0
SPLINE
  5
10f
100
AcDbEntity
  8
Kontur
 62
7
100
AcDbSpline
 70
8
 71
3
 72
8
 73
4
 74
0
 40
0
 40
0
 40
0
 40
0
 40
1
 40
1
 40
1
 40
1
 10
25.499992
 20
53.399992
 30
0.0
 10
25.499994
 20
53.399994
 30
0.0
 10
25.499996
 20
53.399996
 30
0.0
 10
25.499999
 20
53.399998
 30
0.0
  0
SPLINE
  5
110
100
AcDbEntity
  8
Kontur
 62
7
100
AcDbSpline
 70
8
 71
3
 72
8
 73
4
 74
0
 40
0
 40
0
 40
0
 40
0
 40
1
 40
1
 40
1
 40
1
 10
25.499999
 20
53.399998
 30
0.0
 10
25.499999
 20
59.167024
 30
0.0
 10
25.499999
 20
64.934050
 30
0.0
 10
25.499999
 20
70.701075
 30
0.0
  0
SPLINE
  5
111
100
AcDbEntity
  8
Kontur
 62
7
100
AcDbSpline
 70
8
 71
3
 72
8
 73
4
 74
0
 40
0
 40
0
 40
0
 40
0
 40
1
 40
1
 40
1
 40
1
 10
25.499999
 20
70.701075
 30
0.0
 10
25.499999
 20
71.279460
 30
0.0
 10
25.516983
 20
71.859967
 30
0.0
 10
25.453229
 20
72.434828
 30
0.0
  0
SPLINE
  5
112
100
AcDbEntity
  8
Kontur
 62
7
100
AcDbSpline
 70
8
 71
3
 72
8
 73
4
 74
0
 40
0
 40
0
 40
0
 40
0
 40
1
 40
1
 40
1
 40
1
 10
25.453229
 20
72.434828
 30
0.0
 10
25.417709
 20
72.755122
 30
0.0
 10
25.353499
 20
73.097046
 30
0.0
 10
25.125845
 20
73.325133
 30
0.0
  0
SPLINE
  5
113
100
AcDbEntity
  8
Kontur
 62
7
100
AcDbSpline
 70
8
 71
3
 72
8
 73
4
 74
0
 40
0
 40
0
 40
0
 40
0
 40
1
 40
1
 40
1
 40
1
 10
25.125845
 20
73.325133
 30
0.0
 10
24.898498
 20
73.552911
 30
0.0
 10
24.557084
 20
73.617532
 30
0.0
 10
24.237238
 20
73.653139
 30
0.0
  0
SPLINE
  5
114
100
AcDbEntity
  8
Kontur
 62
7
100
AcDbSpline
 70
8
 71
3
 72
8
 73
4
 74
0
 40
0
 40
0
 40
0
 40
0
 40
1
 40
1
 40
1
 40
1
 10
24.237238
 20
73.653139
 30
0.0
 10
24.237234
 20
73.653138
 30
0.0
 10
24.237231
 20
73.653139
 30
0.0
 10
24.237229
 20
73.653140
 30
0.0
  0
SPLINE
  5
115
100
AcDbEntity
  8
Kontur
 62
7
100
AcDbSpline
 70
8
 71
3
 72
8
 73
4
 74
0
 40
0
 40
0
 40
0
 40
0
 40
1
 40
1
 40
1
 40
1
 10
24.237229
 20
73.653140
 30
0.0
 10
23.663482
 20
73.717011
 30
0.0
 10
23.084057
 20
73.699998
 30
0.0
 10
22.506766
 20
73.699998
 30
0.0
  0
SPLINE
  5
116
100
AcDbEntity
  8
Kontur
 62
7
100
AcDbSpline
 70
8
 71
3
 72
8
 73
4
 74
0
 40
0
 40
0
 40
0
 40
0
 40
1
 40
1
 40
1
 40
1
 10
22.506766
 20
73.699998
 30
0.0
 10
16.004395
 20
73.699998
 30
0.0
 10
9.502025
 20
73.699998
 30
0.0
 10
2.999654
 20
73.699998
 30
0.0
  0
SPLINE
  5
117
100
AcDbEntity
  8
Kontur
 62
7
100
AcDbSpline
 70
8
 71
3
 72
8
 73
4
 74
0
 40
0
 40
0
 40
0
 40
0
 40
1
 40
1
 40
1
 40
1
 10
2.999654
 20
73.699998
 30
0.0
 10
2.999651
 20
73.699998
 30
0.0
 10
2.999648
 20
73.699998
 30
0.0
 10
2.999644
 20
73.699998
 30
0.0
  0
SPLINE
  5
118
100
AcDbEntity
  8
Kontur
 62
7
100
AcDbSpline
 70
8
 71
3
 72
8
 73
4
 74
0
 40
0
 40
0
 40
0
 40
0
 40
1
 40
1
 40
1
 40
1
 10
2.999644
 20
73.699998
 30
0.0
 10
2.421116
 20
73.699998
 30
0.0
 10
1.840440
 20
73.717081
 30
0.0
 10
1.265478
 20
73.652941
 30
0.0
  0
SPLINE
  5
119
100
AcDbEntity
  8
Kontur
 62
7
100
AcDbSpline
 70
8
 71
3
 72
8
 73
4
 74
0
 40
0
 40
0
 40
0
 40
0
 40
1
 40
1
 40
1
 40
1
 10
1.265478
 20
73.652941
 30
0.0
 10
0.944853
 20
73.617173
 30
0.0
 10
0.602623
 20
73.552118
 30
0.0
 10
0.374956
 20
73.323540
 30
0.0
  0
SPLINE
  5
11a
100
AcDbEntity
  8
Kontur
 62
7
100
AcDbSpline
 70
8
 71
3
 72
8
 73
4
 74
0
 40
0
 40
0
 40
0
 40
0
 40
1
 40
1
 40
1
 40
1
 10
0.374956
 20
73.323540
 30
0.0
 10
0.146644
 20
73.094315
 30
0.0
 10
0.082456
 20
72.751017
 30
0.0
 10
0.046869
 20
72.429452
 30
0.0
  0
SPLINE
  5
11b
100
AcDbEntity
  8
Kontur
 62
7
100
AcDbSpline
 70
8
 71
3
 72
8
 73
4
 74
0
 40
0
 40
0
 40
0
 40
0
 40
1
 40
1
 40
1
 40
1
 10
0.046869
 20
72.429452
 30
0.0
 10
-0.017022
 20
71.852137
 30
0.0
 10
-0.000001
 20
71.269175
 30
0.0
 10
-0.000001
 20
70.688334
 30
0.0
  0
LINE
  5
11c
100
AcDbEntity
  8
Kontur
 62
7
100
AcDbLine
 10
-0.000001
 20
70.688334
 30
0.0
 11
-0.000001
 21
70.688334
 31
0.0
  0
SPLINE
  5
11d
100
AcDbEntity
  8
Kontur
 62
7
100
AcDbSpline
 70
8
 71
3
 72
8
 73
4
 74
0
 40
0
 40
0
 40
0
 40
0
 40
1
 40
1
 40
1
 40
1
 10
12.698145
 20
64.950072
 30
0.0
 10
10.862750
 20
64.978710
 30
0.0
 10
9.398054
 20
66.489750
 30
0.0
 10
9.426585
 20
68.325146
 30
0.0
  0
SPLINE
  5
11e
100
AcDbEntity
  8
Kontur
 62
7
100
AcDbSpline
 70
8
 71
3
 72
8
 73
4
 74
0
 40
0
 40
0
 40
0
 40
0
 40
1
 40
1
 40
1
 40
1
 10
9.426585
 20
68.325146
 30
0.0
 10
9.455117
 20
70.160542
 30
0.0
 10
10.966073
 20
71.625326
 30
0.0
 10
12.801470
 20
71.596900
 30
0.0
  0
SPLINE
  5
11f
100
AcDbEntity
  8
Kontur
 62
7
100
AcDbSpline
 70
8
 71
3
 72
8
 73
4
 74
0
 40
0
 40
0
 40
0
 40
0
 40
1
 40
1
 40
1
 40
1
 10
12.801470
 20
71.596900
 30
0.0
 10
14.636868
 20
71.568474
 30
0.0
 10
16.101739
 20
70.057603
 30
0.0
 10
16.073419
 20
68.222203
 30
0.0
  0
SPLINE
  5
120
100
AcDbEntity
  8
Kontur
 62
7
100
AcDbSpline
 70
8
 71
3
 72
8
 73
4
 74
0
 40
0
 40
0
 40
0
 40
0
 40
1
 40
1
 40
1
 40
1
 10
16.073419
 20
68.222203
 30
0.0
 10
16.045099
 20
66.386804
 30
0.0
 10
14.534311
 20
64.921846
 30
0.0
 10
12.698911
 20
64.950061
 30
0.0
  0
LINE
  5
121
100
AcDbEntity
  8
Kontur
 62
7
100
AcDbLine
 10
12.299999
 20
13.399999
 30
0.0
 11
13.199999
 21
13.399999
 31
0.0
  0
LINE
  5
122
100
AcDbEntity
  8
Kontur
 62
7
100
AcDbLine
 10
13.199999
 20
13.399999
 30
0.0
 11
16.099999
 21
8.500000
 31
0.0
  0
LINE
  5
123
100
AcDbEntity
  8
Kontur
 62
7
100
AcDbLine
 10
16.099999
 20
8.500000
 30
0.0
 11
9.399999
 21
8.500000
 31
0.0
  0
LINE
  5
124
100
AcDbEntity
  8
Kontur
 62
7
100
AcDbLine
 10
9.399999
 20
8.500000
 30
0.0
 11
12.299999
 21
13.399999
 31
0.0
  0
LINE
  5
125
100
AcDbEntity
  8
Kalibrierhilfe
 62
7
100
AcDbLine
 10
10.999999
 20
44.499998
 30
0.0
 11
14.499998
 21
44.499998
 31
0.0
  0
LINE
  5
126
100
AcDbEntity
  8
Kalibrierhilfe
 62
7
100
AcDbLine
 10
14.499998
 20
44.499998
 30
0.0
 11
14.499998
 21
41.499999
 31
0.0
  0
LINE
  5
127
100
AcDbEntity
  8
Kalibrierhilfe
 62
7
100
AcDbLine
 10
14.499998
 20
41.499999
 30
0.0
 11
10.999999
 21
41.499999
 31
0.0
  0
LINE
  5
128
100
AcDbEntity
  8
Kalibrierhilfe
 62
7
100
AcDbLine
 10
10.999999
 20
41.499999
 30
0.0
 11
10.999999
 21
44.499998
 31
0.0
  0
ENDSEC
  0
SECTION
  2
OBJECTS
  0
DICTIONARY
  5
C
330
0
100
AcDbDictionary
  3
ACAD_GROUP
350
D
  3
ACAD_MLINESTYLE
350
17
  0
DICTIONARY
  5
D
330
C
100
AcDbDictionary
  0
DICTIONARY
  5
1A
330
C
100
AcDbDictionary
  0
DICTIONARY
  5
17
330
C
100
AcDbDictionary
  3
STANDARD
350
18
  0
DICTIONARY
  5
19
330
C
100
AcDbDictionary
  0
ENDSEC
  0
EOF
